HIERARCHY
ROOT Hips
{
	OFFSET 0.00000 0.00000 0.00000
	CHANNELS 6 Xposition Yposition Zposition Zrotation Yrotation Xrotation 
	JOINT LHipJoint
	{
		OFFSET 0 0 0
		CHANNELS 3 Zrotation Yrotation Xrotation
		JOINT LeftUpLeg
		{
			OFFSET 1.64549 -1.70879 0.84566
			CHANNELS 3 Zrotation Yrotation Xrotation
			JOINT LeftLeg
			{
				OFFSET 2.24963 -6.18082 0.00000
				CHANNELS 3 Zrotation Yrotation Xrotation
				JOINT LeftFoot
				{
					OFFSET 2.71775 -7.46697 0.00000
					CHANNELS 3 Zrotation Yrotation Xrotation
					JOINT LeftToeBase
					{
						OFFSET 0.18768 -0.51564 2.24737
						CHANNELS 3 Zrotation Yrotation Xrotation
						End Site
						{
							OFFSET 0.00000 -0.00000 1.15935
						}
					}
				}
			}
		}
	}
	JOINT RHipJoint
	{
		OFFSET 0 0 0
		CHANNELS 3 Zrotation Yrotation Xrotation
		JOINT RightUpLeg
		{
			OFFSET -1.58830 -1.70879 0.84566
			CHANNELS 3 Zrotation Yrotation Xrotation
			JOINT RightLeg
			{
				OFFSET -2.25006 -6.18201 0.00000
				CHANNELS 3 Zrotation Yrotation Xrotation
				JOINT RightFoot
				{
					OFFSET -2.72829 -7.49593 0.00000
					CHANNELS 3 Zrotation Yrotation Xrotation
					JOINT RightToeBase
					{
						OFFSET -0.21541 -0.59185 2.10643
						CHANNELS 3 Zrotation Yrotation Xrotation
						End Site
						{
							OFFSET -0.00000 -0.00000 1.09838
						}
					}
				}
			}
		}
	}
	JOINT LowerBack
	{
		OFFSET 0 0 0
		CHANNELS 3 Zrotation Yrotation Xrotation
		JOINT Spine
		{
			OFFSET 0.03142 2.10496 -0.11038
			CHANNELS 3 Zrotation Yrotation Xrotation
			JOINT Spine1
			{
				OFFSET -0.01863 2.10897 -0.06956
				CHANNELS 3 Zrotation Yrotation Xrotation
				JOINT Neck
				{
					OFFSET 0 0 0
					CHANNELS 3 Zrotation Yrotation Xrotation
					JOINT Neck1
					{
						OFFSET -0.02267 1.73238 0.00451
						CHANNELS 3 Zrotation Yrotation Xrotation
						JOINT Head
						{
							OFFSET -0.05808 1.54724 -0.61749
							CHANNELS 3 Zrotation Yrotation Xrotation
							End Site
							{
								OFFSET -0.01396 1.71468 -0.21082
							}
						}
					}
				}
				JOINT LeftShoulder
				{
					OFFSET 0 0 0
					CHANNELS 3 Zrotation Yrotation Xrotation
					JOINT LeftArm
					{
						OFFSET 3.44898 0.50298 0.21920
						CHANNELS 3 Zrotation Yrotation Xrotation
						JOINT LeftForeArm
						{
							OFFSET 5.41917 -0.00000 -0.00000
							CHANNELS 3 Zrotation Yrotation Xrotation
							JOINT LeftHand
							{
								OFFSET 2.44373 -0.00000 0.00000
								CHANNELS 3 Zrotation Yrotation Xrotation
								JOINT LeftFingerBase
								{
									OFFSET 0 0 0
									CHANNELS 3 Zrotation Yrotation Xrotation
									JOINT LeftHandIndex1
									{
										OFFSET 0.72750 -0.00000 0.00000
										CHANNELS 3 Zrotation Yrotation Xrotation
										End Site
										{
											OFFSET 0.58653 -0.00000 0.00000
										}
									}
								}
								JOINT LThumb
								{
									OFFSET 0 0 0
									CHANNELS 3 Zrotation Yrotation Xrotation
									End Site
									{
										OFFSET 0.59549 -0.00000 0.59549
									}
								}
							}
						}
					}
				}
				JOINT RightShoulder
				{
					OFFSET 0 0 0
					CHANNELS 3 Zrotation Yrotation Xrotation
					JOINT RightArm
					{
						OFFSET -3.23015 0.55830 0.31051
						CHANNELS 3 Zrotation Yrotation Xrotation
						JOINT RightForeArm
						{
							OFFSET -5.58976 -0.00010 0.00014
							CHANNELS 3 Zrotation Yrotation Xrotation
							JOINT RightHand
							{
								OFFSET -2.48060 -0.00000 0.00000
								CHANNELS 3 Zrotation Yrotation Xrotation
								JOINT RightFingerBase
								{
									OFFSET 0 0 0
									CHANNELS 3 Zrotation Yrotation Xrotation
									JOINT RightHandIndex1
									{
										OFFSET -0.81601 -0.00000 0.00000
										CHANNELS 3 Zrotation Yrotation Xrotation
										End Site
										{
											OFFSET -0.65789 -0.00000 0.00000
										}
									}
								}
								JOINT RThumb
								{
									OFFSET 0 0 0
									CHANNELS 3 Zrotation Yrotation Xrotation
									End Site
									{
										OFFSET -0.66793 -0.00000 0.66793
									}
								}
							}
						}
					}
				}
			}
		}
	}
}
MOTION
Frames: 5
Frame Time: .0083333
-3.0396 18.0622 16.6852 339.5900 -69.3505 396.4280 0.0000 0.0000 0.0000 1.5883 -32.1519 -37.7740 2.4662 9.7762 28.2551 -0.7396 15.5152 -1.6060 2.0624 -8.9948 -25.7789 0.0000 0.0000 0.0000 -4.0357 37.9068 -34.8653 -1.5054 -7.7494 21.9555 -13.4550 18.5523 -70.5332 -10.5859 -17.7264 61.4294 9.9511 5.6359 5.9766 6.4038 9.0534 -7.4743 0.1413 3.7304 -11.0535 -11.9832 -10.8436 -8.9498 9.7928 -16.4248 25.4631 3.2560 -7.7695 11.5997 0.0000 0.0000 0.0000 -27.4533 -31.7721 5.2043 17.7877 -27.8845 -4.4495 -0.0000 -0.0000 4.1060 -0.7980 16.7054 -0.2294 -7.1250 0.0000 -0.0000 -26.2781 44.9107 0.0624 0.0000 0.0000 0.0000 88.9286 45.1979 -57.8484 -2.8281 4.8845 -0.1206 0.0000 0.0000 72.1741 -11.1695 15.1698 -2.9578 7.1250 -0.0000 -0.0000 11.0780 -14.7279 8.0522
-3.1693 17.9399 16.8514 335.2690 -71.9337 401.3370 0.0000 0.0000 0.0000 2.1715 -31.0973 -39.7935 2.5811 9.9839 28.9247 -0.6108 14.9414 0.8944 1.4759 -7.6766 -21.7359 0.0000 0.0000 0.0000 -3.7025 37.5449 -33.0527 -1.3167 -7.2680 20.5117 -14.0957 20.6759 -72.5030 -10.3767 -17.6163 60.7400 10.5378 5.9255 4.8521 6.2438 9.2682 -7.4652 -0.2385 3.8148 -10.2358 -11.8116 -10.4721 -9.1753 9.6905 -15.9108 25.6827 3.2686 -7.5316 11.6339 0.0000 0.0000 0.0000 -28.8096 -30.5433 5.8161 18.2554 -28.4829 -4.6704 -0.0000 -0.0000 3.7289 -2.4180 16.1253 -0.6719 -7.1250 0.0000 -0.0000 -27.4022 44.2029 0.5854 0.0000 0.0000 0.0000 88.8610 43.4139 -54.6253 -2.8716 4.9593 -0.1244 0.0000 0.0000 67.0882 -8.9796 14.8883 -2.3250 7.1250 -0.0000 -0.0000 12.5532 -15.1548 9.0583
-3.3010 17.8037 17.0032 328.5310 -74.3915 408.7310 0.0000 0.0000 0.0000 2.5159 -28.9869 -41.9326 2.7523 10.2828 29.8974 -0.4034 14.0691 3.9820 1.5230 -7.7924 -22.0854 0.0000 0.0000 0.0000 -3.3782 37.5418 -31.7259 -1.1627 -6.8454 19.2581 -14.6029 22.6755 -74.0658 -9.5535 -17.1510 57.9854 11.0267 6.3313 3.8177 6.2375 9.6530 -7.5989 -0.4175 3.9789 -9.6699 -11.9879 -10.1497 -9.0717 9.5111 -15.3968 25.7782 3.3228 -7.3493 11.5813 0.0000 -0.0000 0.0000 -30.1488 -29.0897 7.3666 19.0164 -29.4391 -5.0389 -0.0000 -0.0000 2.7115 -3.6861 16.1893 -1.0290 -7.1250 0.0000 -0.0000 -28.4975 44.1134 0.6822 0.0000 -0.0000 0.0000 88.4187 41.3801 -51.5487 -3.0450 5.2568 -0.1398 0.0000 0.0000 62.1076 -6.8370 14.4014 -1.7081 7.1250 -0.0000 -0.0000 14.0074 -15.7555 9.9844
-3.4495 17.6722 17.1598 319.9180 -76.6611 417.6860 0.0000 0.0000 0.0000 2.2310 -26.9730 -43.4774 2.9936 10.6847 31.2239 -0.2326 13.5869 6.3441 0.0036 -0.3859 -1.0602 0.0000 0.0000 0.0000 -2.2382 35.6596 -30.4127 -1.0428 -6.4942 18.2254 -14.2679 24.0509 -73.0831 -8.3905 -16.3991 53.9573 11.4184 6.6745 2.7639 6.1963 9.9085 -7.5402 -0.5490 4.1082 -8.8900 -12.2069 -9.8330 -9.0554 9.5196 -14.9250 25.8481 3.4399 -7.1667 11.5628 0.0000 0.0000 0.0000 -31.4483 -27.8227 7.6608 19.2486 -29.7265 -5.1536 -0.0000 -0.0000 3.2592 -5.2252 15.2771 -1.3803 -7.1250 0.0000 -0.0000 -29.3712 43.1363 1.4908 0.0000 0.0000 0.0000 88.2724 39.5898 -48.2105 -3.2913 5.6789 -0.1633 0.0000 0.0000 57.0123 -5.2806 13.6185 -1.2467 7.1250 -0.0000 -0.0000 15.0939 -16.5908 10.5309
-3.5969 17.5366 17.3195 311.0360 -79.4252 426.6640 0.0000 0.0000 0.0000 -0.2061 -24.5976 -43.6117 3.2990 11.1640 32.8351 -0.1925 9.8191 2.8411 0.0134 -0.7470 -2.0529 0.0000 0.0000 0.0000 -1.5864 31.5688 -29.6743 -0.9819 -6.3074 17.6790 -13.4765 23.3711 -70.6583 -10.4464 -17.6534 60.9703 10.8370 6.8328 1.8984 5.9577 9.8876 -7.3476 -0.3847 4.1767 -8.1989 -12.3441 -9.4323 -8.9017 9.4205 -14.3095 25.7765 3.5342 -6.9295 11.4253 0.0000 0.0000 0.0000 -32.5564 -26.3365 7.7777 19.4694 -29.9978 -5.2635 -0.0000 -0.0000 4.2657 -6.7310 14.4067 -1.6819 -7.1250 0.0000 -0.0000 -30.2190 42.2099 2.3163 0.0000 0.0000 0.0000 88.1878 37.8761 -44.5426 -3.5332 6.0928 -0.1881 0.0000 0.0000 51.8678 -4.1868 12.8474 -0.9325 7.1250 -0.0000 -0.0000 15.8822 -17.3791 10.8399
